<svg xmlns="http://www.w3.org/2000/svg" viewBox="0 0 194 76" version="1.1" xml:space="preserve" x="0px" y="0px" width="194px" height="76px" background-color="#ffffff00"><defs><linearGradient id="gradient1" x1="47.1649%" y1="1.3158%" x2="47.1649%" y2="81.5789%"><stop stop-color="#745dc0" stop-opacity="1" offset="0%"/><stop stop-color="#5497d8" stop-opacity="1" offset="100%"/></linearGradient></defs><path d="M142 62L173.5 62C175.7092 62 179.0539 58.9963 180 57L186.4386 43.1381C188.6816 38.0912 185.5229 34 180 34L170 34C168.8954 34 168 33.3284 168 32.5 168 31.6716 168.8954 31 170 31L187 31 194 16 165 16 154 38C151.7269 43.0334 153.4771 46.9688 159 46.9688L168 46.9688 168 47C169.1046 47 170 47.6716 170 48.5 170 49.3284 169.1046 50 168 50L148 50 142 62ZM65.5 65C62.4624 65 60 67.4624 60 70.5 60 73.5376 62.4624 76 65.5 76L91 76 96 65 65.5 65ZM85 16L70.6721 47.0177C70.2089 48.0205 70.3053 49.5943 70.8876 50.533L76.9458 60.3004C77.528 61.2391 78.8954 62 80 62L98 62 120 16 108 16 93 48 82 48 97 16 85 16ZM140 29L124 62 136 62 152 29 140 29ZM146 16L141 26 149.005 26C151.2142 26 153.8052 24.3979 154.7924 22.4216L156.2126 19.5784C157.1998 17.6021 156.2092 16 154.0001 16L146 16ZM0 62L29.5 62C31.7092 62 35.0539 58.9963 36 57L42.4386 43.1381C44.6816 38.0912 41.5229 34 36 34L26 34C24.8954 34 24 33.3284 24 32.5 24 31.6716 24.8954 31 26 31L43 31 50 16 21 16 10 38C7.7269 43.0334 9.4771 46.9688 15 46.9688L24 46.9688 24 47C25.1046 47 26 47.6716 26 48.5 26 49.3284 25.1046 50 24 50L6 50 0 62ZM134 0L105 62 118 62 147 0 134 0ZM62 0L46.635 34.775C48.3667 36.4388 48.7809 40.118 47.4386 43.1381L38 62 60 62 64 52C64.9879 50.0241 64.7092 48 62.5 48L54 48 62 31 71 31C72.1046 31 72.533 30.001 73 29L79 16 68 16 75 0 62 0Z" stroke="#ffffff00" stroke-width="1" fill="url(#gradient1)"/></svg>