<?xml version="1.0" standalone="no"?>
<!DOCTYPE svg PUBLIC "-//W3C//DTD SVG 20010904//EN"
 "http://www.w3.org/TR/2001/REC-SVG-20010904/DTD/svg10.dtd">
<svg version="1.0" xmlns="http://www.w3.org/2000/svg"
 width="1024.000000pt" height="1024.000000pt" viewBox="0 0 1024.000000 1024.000000"
 preserveAspectRatio="xMidYMid meet">
<metadata>
Created by potrace 1.11, written by Peter Selinger 2001-2013
</metadata>
<g transform="translate(0.000000,1024.000000) scale(0.100000,-0.100000)"
fill="#000000" stroke="none">
<path d="M4090 8903 c-128 -258 -238 -471 -243 -474 -5 -3 -9 -10 -9 -15 1
-16 -59 -139 -71 -146 -7 -4 -9 -8 -5 -8 4 0 -78 -169 -181 -375 -104 -206
-186 -375 -182 -375 3 0 1 -4 -4 -8 -12 -8 -441 -865 -436 -871 1 -2 -1 -7 -6
-10 -10 -8 -155 -298 -153 -307 1 -4 -2 -10 -7 -13 -5 -3 -38 -64 -73 -136
-35 -71 -68 -133 -74 -137 -6 -4 -8 -8 -4 -8 4 0 -47 -106 -112 -236 -115
-231 -156 -321 -152 -336 1 -5 -2 -8 -7 -8 -5 0 -12 -15 -16 -32 -8 -35 -8
-35 -18 -58 -11 -24 -54 -201 -61 -245 -14 -98 -19 -156 -17 -235 1 -73 5
-125 11 -125 1 0 3 -16 5 -35 6 -69 51 -210 67 -210 5 0 8 -6 8 -13 0 -16 60
-110 103 -160 17 -21 55 -56 82 -78 28 -21 56 -43 62 -49 15 -12 175 -94 191
-97 6 -2 44 -12 84 -23 85 -25 112 -31 153 -35 17 -2 41 -6 55 -10 14 -4 419
-8 900 -10 481 -1 895 -5 920 -9 52 -8 160 -47 160 -58 0 -5 6 -8 13 -8 13 0
85 -78 88 -95 0 -5 5 -18 10 -28 16 -29 12 -106 -7 -149 -34 -76 -107 -131
-211 -158 -64 -17 -170 -18 -1816 -18 -962 0 -1750 -2 -1751 -4 -2 -2 -101
-201 -222 -443 -120 -242 -222 -441 -226 -443 -4 -2 -8 -9 -8 -15 0 -16 -142
-301 -152 -305 -4 -2 -8 -9 -8 -15 0 -15 -321 -660 -333 -668 -5 -3 -7 -8 -6
-10 5 -6 -63 -143 -75 -151 -7 -4 -5 -9 4 -13 21 -8 5521 -1 5545 7 130 43
226 85 233 101 2 4 9 7 14 7 13 0 149 82 193 117 17 13 35 27 40 31 99 72 359
328 370 363 4 10 10 19 14 19 12 0 112 156 148 230 59 122 143 302 143 306 0
3 15 36 34 74 19 37 32 71 28 74 -3 3 0 6 6 6 7 0 12 5 12 11 0 5 14 37 30 71
17 33 30 66 30 74 0 8 5 14 10 14 6 0 10 9 10 20 0 11 4 20 10 20 5 0 9 3 8 8
-1 4 10 33 25 65 15 32 27 62 27 67 0 6 5 10 10 10 6 0 10 6 10 14 0 7 25 67
56 132 31 66 71 152 90 191 19 40 45 96 58 125 13 29 38 85 57 123 18 39 32
73 31 78 -1 4 3 7 8 7 6 0 10 8 10 18 0 9 7 26 15 36 8 11 15 28 15 38 0 10 5
18 10 18 6 0 10 5 10 11 0 6 23 58 50 116 28 58 50 107 50 108 0 2 29 65 65
140 61 127 96 203 100 215 1 3 21 46 44 95 47 97 124 305 115 305 -4 0 -1 7 6
15 7 8 9 15 5 15 -4 0 -2 7 5 15 7 8 10 15 7 15 -3 0 -2 13 3 29 22 79 31 278
16 391 -15 112 -66 261 -119 345 -52 83 -81 120 -152 191 -136 138 -333 245
-550 300 -16 4 -32 8 -35 9 -3 0 -27 4 -53 9 -27 4 -59 9 -70 12 -72 14 -236
17 -1102 19 l-960 2 -60 23 c-73 28 -128 70 -161 122 -37 58 -46 135 -21 176
5 6 5 12 2 12 -9 0 28 50 61 84 53 53 178 100 249 94 17 -1 35 1 41 4 5 4 16
3 24 -2 8 -5 22 -5 32 1 12 7 18 6 18 -1 0 -6 5 -8 12 -4 13 8 92 9 105 1 5
-3 15 -2 22 3 8 4 26 4 42 0 15 -5 30 -6 33 -2 4 3 25 5 49 4 59 -2 180 -3
192 -2 6 1 28 1 50 1 92 -2 181 -2 188 -1 23 5 76 2 91 -3 10 -4 23 -4 29 0
13 8 96 8 104 0 3 -4 14 -2 24 4 13 7 19 6 19 -1 0 -6 5 -8 12 -4 14 9 96 9
105 1 3 -4 14 -2 24 4 13 7 19 6 19 -1 0 -6 5 -8 12 -4 14 9 96 9 105 1 3 -4
14 -2 24 4 13 7 19 6 19 -1 0 -6 5 -8 12 -4 13 8 92 9 105 1 5 -3 15 -2 22 3
8 4 26 4 42 0 15 -5 30 -6 33 -2 4 3 25 5 49 4 59 -2 180 -3 192 -2 6 1 28 1
50 1 92 -2 181 -2 188 -1 23 5 76 2 91 -3 10 -4 23 -4 29 0 13 8 96 8 104 0 3
-4 14 -2 24 4 13 7 19 6 19 -1 0 -6 5 -8 12 -4 13 8 92 9 105 1 5 -3 15 -2 22
3 8 4 26 4 42 0 15 -5 30 -6 33 -2 4 3 25 5 49 4 58 -2 180 -3 190 -2 22 4 76
3 90 -3 9 -3 19 -1 23 5 4 7 9 6 15 -3 6 -10 12 -4 23 21 8 19 18 39 23 43 4
5 8 12 9 15 1 11 18 49 74 167 28 61 67 142 85 180 18 39 49 104 68 145 70
153 170 367 208 445 40 86 62 140 57 141 -2 0 5 8 15 18 9 10 17 26 17 37 0
10 3 19 8 19 4 0 16 21 26 48 11 26 41 91 66 144 26 53 45 100 42 103 -3 3 0
5 6 5 7 0 12 5 12 11 0 6 18 49 40 95 22 47 40 89 40 94 0 6 4 10 10 10 5 0 9
3 8 8 -2 9 9 35 71 165 28 59 51 112 51 117 0 6 4 10 10 10 5 0 9 3 8 8 -2 7
3 19 80 182 59 125 95 204 97 210 1 3 16 35 33 72 18 36 32 69 32 72 0 3
-1124 6 -2498 6 l-2498 0 -234 -467z"/>
</g>
</svg>
