<svg xmlns="http://www.w3.org/2000/svg" viewBox="0 0 192 76" version="1.1" xml:space="preserve" x="0px" y="0px" width="192px" height="76px" background-color="#ffffff00"><defs><linearGradient id="gradient1" x1="48.1991%" y1="1.3158%" x2="48.1991%" y2="81.5789%"><stop stop-color="#745dc0" stop-opacity="1" offset="0%"/><stop stop-color="#5497d8" stop-opacity="1" offset="100%"/></linearGradient></defs><path d="M83.5 65L79.5 65 68.5415 65C65.2048 65 61.3807 67.4624 60 70.5 58.6193 73.5376 60.2048 76 63.5415 76L91.5 76 96.575 65 83.5 65ZM85.5 16L70.8333 48.8333 79.5 62 98.5 62 120.5 16 108.5 16 93.5 48 83.5 48 97.5 16 85.5 16ZM139.5 62L174.5 62 183.4386 43.1381C185.6816 38.0912 183.0229 34 177.5 34L167.0812 34C166.2079 34 165.7239 33.3284 166 32.5 166.2761 31.6716 167.2079 31 168.0812 31L184.5 31 191.375 16 160.5 16 150.6158 37.8863C148.3427 42.9197 150.9771 47 156.5 47L165.9188 47C166.7921 47 167.2761 47.6716 167 48.5 166.7239 49.3284 165.7921 50 164.9188 50L145.5 50 139.5 62ZM136.955 29L121.5 62 134.5 62 149.73 29 136.955 29ZM142.9449 16L138.285 26 147.025 26C149.2341 26 151.772 24.3724 152.6936 22.3647L153.9464 19.6353C154.8679 17.6276 153.8242 16 151.615 16L142.9449 16ZM0.5 62L31.5 62C33.7092 62 36.2669 60.3817 37.213 58.3853L45.3432 41.2293C47.75 35.875 45.1875 34 40.7692 34L28.0811 34C27.2079 34 26.7238 33.3284 27 32.5 27.2762 31.6716 28.2079 31 29.0811 31L45.5 31 52.375 16 21.5 16 11.6159 37.8863C9.3427 42.9197 11.9771 47 17.5 47L26.9189 47C27.7921 47 28.2762 47.6716 28 48.5 27.7238 49.3284 26.7921 50 25.9189 50L6.5 50 0.5 62ZM132.8331 0.2229L103.5 62 116.5 62 145.5 0 132.8331 0.2229ZM63.8331 0.2229L48.635 32.775C50.3667 34.4388 51.4656 36.7996 50.4386 39.1381L39.5 62 59.5 62 64.7112 51.5777C65.6991 49.6018 64.7092 48 62.5 48L54.5 48 62.5 31 71.5 31C72.6046 31 73.8786 30.1886 74.3457 29.1876L80.5 16 69.5 16 76.5 0 63.8331 0.2229Z" stroke="#ffffff00" stroke-width="1" fill="url(#gradient1)"/></svg>