<svg xmlns="http://www.w3.org/2000/svg" viewBox="0 0 194 76" version="1.1" xml:space="preserve" x="0px" y="0px" width="194px" height="76px" background-color="#ffffff00"><defs><linearGradient id="gradient1" x1="47.6993%" y1="1.3158%" x2="47.6993%" y2="81.5789%"><stop stop-color="#745dc0" stop-opacity="1" offset="0%"/><stop stop-color="#5497d8" stop-opacity="1" offset="100%"/></linearGradient></defs><path d="M83.5 65L79.5 65 68.5415 65C65.2048 65 61.3807 67.4624 60 70.5 58.6193 73.5376 60.2048 76 63.5415 76L91.5 76 96.575 65 83.5 65ZM85.5 16L70.8333 48.8333 79.5 62 98.5 62 120.5 16 108.5 16 93.5 48 83.5 48 98.5 16 85.5 16ZM141.5 62L176.5 62 185.4386 43.1381C187.6816 38.0912 185.0229 34 179.5 34L169.0812 34C168.2079 34 167.7239 33.3284 168 32.5 168.2761 31.6716 169.2079 31 170.0812 31L186.5 31 193.375 16 162.5 16 152.6158 37.8863C150.3427 42.9197 152.9771 47 158.5 47L167.9188 47C168.7921 47 169.2761 47.6716 169 48.5 168.7239 49.3284 167.7921 50 166.9188 50L147.5 50 141.5 62ZM138.955 29L123.5 62 136.5 62 151.73 29 138.955 29ZM144.9449 16L140.285 26 149.025 26C151.2341 26 153.772 24.3724 154.6936 22.3647L155.9464 19.6353C156.8679 17.6276 155.8242 16 153.615 16L144.9449 16ZM0.5 62L31.5 62C33.7092 62 36.2669 60.3817 37.213 58.3853L44.4386 43.1381C46.6817 38.0912 44.0229 34 38.5 34L28.0811 34C27.2079 34 26.7238 33.3284 27 32.5 27.2762 31.6716 28.2079 31 29.0811 31L45.5 31 52.375 16 21.5 16 11.6159 37.8863C9.3427 42.9197 11.9771 47 17.5 47L26.9189 47C27.7921 47 28.2762 47.6716 28 48.5 27.7238 49.3284 26.7921 50 25.9189 50L6.5 50 0.5 62ZM133.8331 0.2229L104.5 62 117.5 62 146.5 0 133.8331 0.2229ZM64.8331 0.2229L47.635 35.775C49.3667 37.4388 49.7809 40.118 48.4386 43.1381L39.5 62 59.5 62 64.7112 51.5777C65.6991 49.6018 64.7092 48 62.5 48L54.5 48 62.5 31 71.5 31C72.6046 31 73.8786 30.1886 74.3457 29.1876L80.5 16 69.5 16 77.5 0 64.8331 0.2229Z" stroke="#ffffff00" stroke-width="1" fill="url(#gradient1)"/></svg>