<svg xmlns="http://www.w3.org/2000/svg" viewBox="0 0 193 76" version="1.1" xml:space="preserve" x="0px" y="0px" width="193px" height="76px" background-color="#ffffff00"><defs><linearGradient id="gradient1" x1="47.9479%" y1="1.3158%" x2="47.9479%" y2="81.5789%"><stop stop-color="#745dc0" stop-opacity="1" offset="0%"/><stop stop-color="#5497d8" stop-opacity="1" offset="100%"/></linearGradient></defs><path d="M83.5 65L79.5 65 68.5415 65C65.2048 65 61.3807 67.4624 60 70.5 58.6193 73.5376 60.2048 76 63.5415 76L91.5 76 96.575 65 83.5 65ZM85.5 16L70.8333 48.8333 79.5 62 98.5 62 120.5 16 108.5 16 93.5 48 83.5 48 98.5 16 85.5 16ZM141.5 62L175.5 62 184.4386 43.1381C186.6816 38.0912 184.0229 34 178.5 34L168.0812 34C167.2079 34 166.7239 33.3284 167 32.5 167.2761 31.6716 168.2079 31 169.0812 31L185.5 31 192.375 16 163.5 16 152.6158 38.8863C150.3427 43.9197 151.9771 47 157.5 47L166.9188 47C167.7921 47 168.2761 47.6716 168 48.5 167.7239 49.3284 166.7921 50 165.9188 50L147.5 50 141.5 62ZM138.955 29L123.5 62 135.5 62 151.73 29 138.955 29ZM144.9449 16L140.285 26 149.025 26C151.2341 26 153.772 24.3724 154.6936 22.3647L155.9464 19.6353C156.8679 17.6276 155.8242 16 153.615 16L144.9449 16ZM0.5 62L30.5 62C32.7092 62 35.2669 60.3817 36.213 58.3853L43.4386 43.1381C45.6817 38.0912 43.0229 34 37.5 34L27.0811 34C26.2079 34 25.7238 33.3284 26 32.5 26.2762 31.6716 27.2079 31 28.0811 31L44.5 31 51.375 16 21.5 16 11.6159 37.8863C9.3427 42.9197 10.9771 47 16.5 47L25.9189 47C26.7921 47 27.2762 47.6716 27 48.5 26.7238 49.3284 26.7921 50 25.9189 50L6.5 50 0.5 62ZM133.8331 0.2229L104.5 62 117.5 62 146.5 0 133.8331 0.2229ZM63.8331 0.2229L47.635 34.775C49.3667 36.4388 49.7809 40.118 48.4386 43.1381L39.5 62 59.5 62 64.7112 51.5777C65.6991 49.6018 64.7092 48 62.5 48L54.5 48 62.5 31 71.5 31C72.6046 31 73.8786 30.1886 74.3457 29.1876L80.5 16 69.5 16 76.5 0 63.8331 0.2229Z" stroke="#ffffff00" stroke-width="1" fill="url(#gradient1)"/></svg>